<svg xmlns="http://www.w3.org/2000/svg" xmlns:xlink="http://www.w3.org/1999/xlink" id="Layer_1" x="0px" y="0px" width="656px" height="176.661px" viewBox="0 0 656 176.661" xml:space="preserve">
<path fill="#191410" d="M335.92,125.191"></path>
<g>
	<g>
		<path fill="#0E78BE" d="M394.483,49.219v69.031c0,0,4.061,7.694,13.25,7.694c9.19,0,32.271,0,32.271,0s9.829-2.782,9.973-12.896    h-7.55c0,0-0.286,5.737-5.843,5.737s-5.557,0-5.557,0h-25.966c0,0-2.992-1.82-2.992-8.549c0-6.732,0-6.735,0-6.735l0.214-21.692    c0,0,0.961-3.847,8.335-3.847h39.358v-7.588h-46.198V49.219H394.483z"></path>
		<path fill="#0E78BE" d="M512.383,112.624h-7.978c0,0-0.997,5.126-5.129,5.696h-31.488c0,0-3.42-0.708-3.42-3.416v-7.98    c0,0-0.801-5.316,5.316-5.316h32.618c0,0,9.028-1.042,9.028-8.469c0-7.427,0-13.57,0-13.57s-1.868-8.265-9.634-8.265h-32.912    c0,0-11.827-0.853-11.827,8.692v36.475c0,0,0.428,8.401,12.538,9.474h33.481C502.979,125.944,513.237,122.881,512.383,112.624z     M464.013,93.743V82.844c0-3.615,3.454-3.972,3.454-3.972h32.647c3.74,0,4.754,3.42,4.754,3.42v5.29    c0,5.984-4.523,8.085-4.523,8.085H471.92C463.015,95.667,464.013,93.743,464.013,93.743z"></path>
		<path fill="#0E78BE" d="M527.06,82.274v31.771c0,0-2.278,4.274,12.111,4.274s22.654,0,22.654,0s5.698-1.993,5.271-5.557h7.267    c0,0,0.856,10.686-10.4,13.181h-38.469c0,0-6.697-0.214-6.697-13.607V80.423c0,0,0.999-10.402,11.826-10.402h31.914    c0,0,11.841,1.853,11.841,15.104h-7.566c0,0-0.341-5.87-5.869-5.87h-30.178C530.764,79.257,527.06,79.069,527.06,82.274z"></path>
		<path fill="#0E78BE" d="M581.06,49.219v78.221h9.26V84.981c0,0-0.569-6.553,9.262-6.553h25.504c0,0,4.131,0.144,4.131,8.834    c0,8.692,0,8.692,0,8.692v29.205v0.785v0.694h8.904V83.841c0,0-3.346-12.11-10.471-12.11c-7.124,0-7.124,0-7.124,0h-31.131V49.576    L581.06,49.219z"></path>
	</g>
	<g>
		<path fill="#FFCB0B" d="M370.354,63.599c4.229-15.479,2.959-20.388-2.796-24.452c-14.894-10.634-31.154-19.026-65.299-10.05    c-36.779,9.691-51.509,53.853-42.015,70.243c13.139,22.567,35.022,32.488,63.414,48.227c12.452,6.893,23.641,9.657,29.981-13.268    C358.584,116.477,365.12,82.818,370.354,63.599L370.354,63.599z"></path>
		<path fill="#2193D2" d="M283.92,101.877c-11.643-11.03-12.781-17.66-8.358-23.157c18.114-22.47,44.259-47.575,78.925-55.251    c30.959-6.86,36.811,10.147,37.464,29.072c0.908,25.593-14.277,61.851-32.716,88.585c-8.098,11.738-19.738,19.281-36.682,2.568    C309.219,130.588,298.033,115.208,283.92,101.877L283.92,101.877z"></path>
		<path fill="#221F20" d="M370.354,63.599c4.229-15.479,2.959-20.388-2.796-24.452c-7.317-5.236-14.99-9.919-24.977-12.26    c-28.811,10.145-51.023,31.997-67.022,51.834c-4.421,5.497-3.284,12.126,8.358,23.157c14.114,13.33,25.301,28.711,38.633,41.818    c4.326,4.291,8.326,6.955,11.97,8.388c7.935,1.693,14.698-1.819,19.119-17.788C358.584,116.477,365.12,82.818,370.354,63.599    L370.354,63.599z"></path>
		<g>
			<g>
				<defs>
					<path id="SVGID_1_" d="M370.354,63.599c4.229-15.479,2.959-20.388-2.796-24.452c-7.317-5.236-14.99-9.919-24.977-12.26       c-28.811,10.145-51.023,31.997-67.022,51.834c-4.421,5.497-3.284,12.126,8.358,23.157       c14.114,13.33,25.301,28.711,38.633,41.818c4.326,4.291,8.326,6.955,11.97,8.388c7.935,1.693,14.698-1.819,19.119-17.788       C358.584,116.477,365.12,82.818,370.354,63.599L370.354,63.599z"></path>
				</defs>
				<clipPath id="SVGID_2_">
					<use xlink:href="#SVGID_1_"></use>
				</clipPath>
				<path clip-path="url(#SVGID_2_)" fill="#FFFFFF" d="M299.204,104.218v7.804c0,2.11,0.714,3.903,2.146,5.333      c1.433,1.43,3.221,2.144,5.333,2.144h41.723c2.112,0,3.9-0.714,5.333-2.144c1.431-1.43,2.146-3.223,2.146-5.333h11.479      c0,2.665-0.52,5.105-1.528,7.413c-1.009,2.277-2.341,4.262-4.063,5.951c-1.693,1.723-3.709,3.056-6.051,4.063      c-2.308,1.012-4.779,1.529-7.315,1.529h-41.723c-2.667,0-5.104-0.518-7.413-1.529c-2.277-1.008-4.261-2.341-5.953-4.063      c-1.691-1.689-3.057-3.674-4.065-5.951c-1.007-2.308-1.528-4.748-1.528-7.413v-7.804v-0.164c0-2.538,0.521-4.942,1.528-7.156      c1.009-2.244,2.375-4.193,4.131-5.887c1.756-1.722,3.771-3.056,6.047-3.999c2.277-0.943,4.717-1.431,7.253-1.431h41.883v-0.162      c2.018,0,3.74-0.715,5.173-2.146c1.431-1.431,2.144-3.156,2.144-5.169v-1.758v-6.047v-0.162v-0.164v-0.325v-0.162v-0.128v-0.164      l-0.161-0.164v-0.324v-0.164v-0.164c-0.099-0.097-0.164-0.164-0.164-0.164v-0.161v-0.164l-0.129-0.13v-0.164      c0-0.128-0.064-0.16-0.162-0.16v-0.164c0-0.099-0.066-0.164-0.163-0.164v-0.164c0-0.097-0.065-0.162-0.164-0.162v-0.164      c-0.099-0.097-0.163-0.162-0.163-0.162V66.33l-0.164-0.162c0-0.132-0.064-0.164-0.163-0.164v-0.162l-0.162-0.164      c0-0.099-0.033-0.164-0.162-0.164v-0.158c-0.097,0-0.13-0.067-0.13-0.164h-0.162c0-0.098-0.067-0.164-0.165-0.164      c0-0.097-0.065-0.164-0.162-0.164v-0.128c-0.099,0-0.164-0.065-0.164-0.162h-0.163c-0.096-0.13-0.164-0.164-0.164-0.164      l-0.16-0.164h-0.164c0-0.097-0.031-0.162-0.163-0.162l-0.131-0.164h-0.163c0-0.097-0.065-0.164-0.162-0.164h-0.164      c0-0.095-0.064-0.162-0.163-0.162h-0.164c0-0.097-0.064-0.162-0.16-0.162h-0.163c0-0.099-0.033-0.164-0.164-0.164h-0.163      c-0.098,0-0.131-0.032-0.131-0.13h-0.162h-0.163l-0.164-0.162h-0.162h-0.163h-0.325l-0.162-0.164h-0.164h-0.129h-0.163h-0.162      h-0.327h-0.162h-41.721c-2.114,0-3.902,0.715-5.333,2.147c-1.433,1.429-2.147,3.219-2.147,5.331h-11.479      c0-2.536,0.521-5.006,1.529-7.316c1.007-2.341,2.373-4.356,4.064-6.047c1.691-1.723,3.675-3.059,5.952-4.064      c2.309-1.009,4.749-1.531,7.415-1.531h41.72h0.489h0.454h0.489c0.097,0,0.195,0.033,0.261,0.099      c0.033,0.032,0.128,0.065,0.227,0.065h0.488h0.454c0.13,0.097,0.262,0.164,0.489,0.164h0.487      c0.097,0.097,0.26,0.162,0.456,0.162c0.128,0,0.193,0.033,0.259,0.065c0.033,0.067,0.13,0.099,0.229,0.099      c0.227,0,0.357,0.032,0.485,0.164h0.327c0.098,0.095,0.261,0.162,0.453,0.162c0.099,0.097,0.262,0.128,0.489,0.128      c0.099,0.13,0.262,0.164,0.487,0.164c0,0.132,0.101,0.164,0.294,0.164c0.129,0.129,0.195,0.162,0.261,0.162      c0.031,0,0.13,0.067,0.229,0.164c0.226,0,0.355,0.063,0.485,0.164c0.099,0.095,0.195,0.162,0.326,0.162      c0.099,0.097,0.163,0.162,0.229,0.162c0.062,0,0.129,0.034,0.226,0.164c0.099,0,0.229,0.032,0.325,0.164      c0.099,0,0.193,0,0.228,0.065c0.064,0.065,0.13,0.065,0.26,0.065c0,0,0.098,0.13,0.326,0.324      c0.195,0.099,0.294,0.164,0.294,0.164c0.226,0.229,0.389,0.326,0.487,0.326l0.322,0.325c0.197,0.099,0.327,0.164,0.327,0.164      c0.195,0.193,0.359,0.292,0.456,0.292c0,0.229,0.127,0.326,0.322,0.326c0,0,0.099,0.099,0.327,0.326l0.324,0.325l0.292,0.324      l0.325,0.294l0.326,0.324c0.227,0.229,0.325,0.326,0.325,0.326c0,0.227,0.097,0.324,0.322,0.324      c0,0.099,0.099,0.261,0.294,0.456c0.13,0.13,0.163,0.229,0.163,0.327l0.326,0.324c0,0.097,0.099,0.261,0.323,0.486      c0.098,0.099,0.164,0.195,0.164,0.328c0.195,0.195,0.325,0.292,0.325,0.292c0,0.13,0,0.195,0.065,0.26      c0.065,0.034,0.065,0.129,0.065,0.227c0.227,0.227,0.323,0.326,0.323,0.326c0,0.195,0.067,0.359,0.164,0.454      c0.099,0.229,0.164,0.326,0.164,0.326c0.097,0.13,0.161,0.261,0.161,0.488c0.099,0.098,0.164,0.195,0.164,0.227      c0,0.066,0.065,0.13,0.164,0.26c0,0.197,0.033,0.292,0.163,0.292c0,0.229,0.03,0.391,0.164,0.489      c0,0.227,0.029,0.391,0.128,0.486c0,0.196,0.065,0.359,0.162,0.489v0.292c0.131,0.128,0.164,0.26,0.164,0.487      c0,0.099,0.031,0.195,0.099,0.227c0.031,0.067,0.064,0.129,0.064,0.261v0.456c0.097,0.13,0.162,0.292,0.162,0.488      c0,0.227,0.067,0.391,0.165,0.487v0.454v0.488c0,0.097,0.032,0.195,0.065,0.26c0.065,0.032,0.096,0.129,0.096,0.227v0.488v0.456      v0.488v6.047v1.756v0.164c0,2.537-0.52,4.944-1.528,7.153c-1.009,2.243-2.341,4.194-4.063,5.884      c-1.691,1.724-3.644,3.063-5.886,4.067c-2.213,1.009-4.618,1.529-7.154,1.529v0.164h-42.046c-2.017,0-3.74,0.681-5.172,2.047      C300.082,100.508,299.302,102.201,299.204,104.218L299.204,104.218z"></path>
			</g>
			<g>
				<defs>
					<path id="SVGID_3_" d="M370.354,63.599c4.229-15.479,2.959-20.388-2.796-24.452c-7.317-5.236-14.99-9.919-24.977-12.26       c-28.811,10.145-51.023,31.997-67.022,51.834c-4.421,5.497-3.284,12.126,8.358,23.157       c14.114,13.33,25.301,28.711,38.633,41.818c4.326,4.291,8.326,6.955,11.97,8.388c7.935,1.693,14.698-1.819,19.119-17.788       C358.584,116.477,365.12,82.818,370.354,63.599L370.354,63.599z"></path>
				</defs>
				<clipPath id="SVGID_4_">
					<use xlink:href="#SVGID_3_"></use>
				</clipPath>
				<path clip-path="url(#SVGID_4_)" fill="#BBBDBF" d="M299.204,104.218v7.804c0,2.11,0.714,3.903,2.146,5.333      c1.433,1.43,3.221,2.144,5.333,2.144h41.723c2.112,0,3.9-0.714,5.333-2.144c1.431-1.43,2.146-3.223,2.146-5.333h11.479      c0,2.665-0.52,5.105-1.528,7.413c-1.009,2.277-2.341,4.262-4.063,5.951c-1.693,1.723-3.709,3.056-6.051,4.063      c-2.308,1.012-4.779,1.529-7.315,1.529h-41.723c-2.667,0-5.104-0.518-7.413-1.529c-2.277-1.008-4.261-2.341-5.953-4.063      c-1.691-1.689-3.057-3.674-4.065-5.951c-1.007-2.308-1.528-4.748-1.528-7.413v-7.804v-0.164c0-2.538,0.521-4.942,1.528-7.156      c1.009-2.244,2.375-4.193,4.131-5.887c1.756-1.722,3.771-3.056,6.047-3.999c2.277-0.943,4.717-1.431,7.253-1.431h41.883v-0.162      c2.018,0,3.74-0.715,5.173-2.146c1.431-1.431,2.144-3.156,2.144-5.169v-1.758v-6.047v-0.162v-0.164v-0.325v-0.162v-0.128v-0.164      l-0.161-0.164v-0.324v-0.164v-0.164c-0.099-0.097-0.164-0.164-0.164-0.164v-0.161v-0.164l-0.129-0.13v-0.164      c0-0.128-0.064-0.16-0.162-0.16v-0.164c0-0.099-0.066-0.164-0.163-0.164v-0.164c0-0.097-0.065-0.162-0.164-0.162v-0.164      c-0.099-0.097-0.163-0.162-0.163-0.162V66.33l-0.164-0.162c0-0.132-0.064-0.164-0.163-0.164v-0.162l-0.162-0.164      c0-0.099-0.033-0.164-0.162-0.164v-0.158c-0.097,0-0.13-0.067-0.13-0.164h-0.162c0-0.098-0.067-0.164-0.165-0.164      c0-0.097-0.065-0.164-0.162-0.164v-0.128c-0.099,0-0.164-0.065-0.164-0.162h-0.163c-0.096-0.13-0.164-0.164-0.164-0.164      l-0.16-0.164h-0.164c0-0.097-0.031-0.162-0.163-0.162l-0.131-0.164h-0.163c0-0.097-0.065-0.164-0.162-0.164h-0.164      c0-0.095-0.064-0.162-0.163-0.162h-0.164c0-0.097-0.064-0.162-0.16-0.162h-0.163c0-0.099-0.033-0.164-0.164-0.164h-0.163      c-0.098,0-0.131-0.032-0.131-0.13h-0.162h-0.163l-0.164-0.162h-0.162h-0.163h-0.325l-0.162-0.164h-0.164h-0.129h-0.163h-0.162      h-0.327h-0.162h-41.721c-2.114,0-3.902,0.715-5.333,2.147c-1.433,1.429-2.147,3.219-2.147,5.331h-11.479      c0-2.536,0.521-5.006,1.529-7.316c1.007-2.341,2.373-4.356,4.064-6.047c1.691-1.723,3.675-3.059,5.952-4.064      c2.309-1.009,4.749-1.531,7.415-1.531h41.72h0.489h0.454h0.489c0.097,0,0.195,0.033,0.261,0.099      c0.033,0.032,0.128,0.065,0.227,0.065h0.488h0.454c0.13,0.097,0.262,0.164,0.489,0.164h0.487      c0.097,0.097,0.26,0.162,0.456,0.162c0.128,0,0.193,0.033,0.259,0.065c0.033,0.067,0.13,0.099,0.229,0.099      c0.227,0,0.357,0.032,0.485,0.164h0.327c0.098,0.095,0.261,0.162,0.453,0.162c0.099,0.097,0.262,0.128,0.489,0.128      c0.099,0.13,0.262,0.164,0.487,0.164c0,0.132,0.101,0.164,0.294,0.164c0.129,0.129,0.195,0.162,0.261,0.162      c0.031,0,0.13,0.067,0.229,0.164c0.226,0,0.355,0.063,0.485,0.164c0.099,0.095,0.195,0.162,0.326,0.162      c0.099,0.097,0.163,0.162,0.229,0.162c0.062,0,0.129,0.034,0.226,0.164c0.099,0,0.229,0.032,0.325,0.164      c0.099,0,0.193,0,0.228,0.065c0.064,0.065,0.13,0.065,0.26,0.065c0,0,0.098,0.13,0.326,0.324      c0.195,0.099,0.294,0.164,0.294,0.164c0.226,0.229,0.389,0.326,0.487,0.326l0.322,0.325c0.197,0.099,0.327,0.164,0.327,0.164      c0.195,0.193,0.359,0.292,0.456,0.292c0,0.229,0.127,0.326,0.322,0.326c0,0,0.099,0.099,0.327,0.326l0.324,0.325l0.292,0.324      l0.325,0.294l0.326,0.324c0.227,0.229,0.325,0.326,0.325,0.326c0,0.227,0.097,0.324,0.322,0.324      c0,0.099,0.099,0.261,0.294,0.456c0.13,0.13,0.163,0.229,0.163,0.327l0.326,0.324c0,0.097,0.099,0.261,0.323,0.486      c0.098,0.099,0.164,0.195,0.164,0.328c0.195,0.195,0.325,0.292,0.325,0.292c0,0.13,0,0.195,0.065,0.26      c0.065,0.034,0.065,0.129,0.065,0.227c0.227,0.227,0.323,0.326,0.323,0.326c0,0.195,0.067,0.359,0.164,0.454      c0.099,0.229,0.164,0.326,0.164,0.326c0.097,0.13,0.161,0.261,0.161,0.488c0.099,0.098,0.164,0.195,0.164,0.227      c0,0.066,0.065,0.13,0.164,0.26c0,0.197,0.033,0.292,0.163,0.292c0,0.229,0.03,0.391,0.164,0.489      c0,0.227,0.029,0.391,0.128,0.486c0,0.196,0.065,0.359,0.162,0.489v0.292c0.131,0.128,0.164,0.26,0.164,0.487      c0,0.099,0.031,0.195,0.099,0.227c0.031,0.067,0.064,0.129,0.064,0.261v0.456c0.097,0.13,0.162,0.292,0.162,0.488      c0,0.227,0.067,0.391,0.165,0.487v0.454v0.488c0,0.097,0.032,0.195,0.065,0.26c0.065,0.032,0.096,0.129,0.096,0.227v0.488v0.456      v0.488v6.047v1.756v0.164c0,2.537-0.52,4.944-1.528,7.153c-1.009,2.243-2.341,4.194-4.063,5.884      c-1.691,1.724-3.644,3.063-5.886,4.067c-2.213,1.009-4.618,1.529-7.154,1.529v0.164h-42.046c-2.017,0-3.74,0.681-5.172,2.047      C300.082,100.508,299.302,102.201,299.204,104.218L299.204,104.218z"></path>
			</g>
			<g>
				<defs>
					<path id="SVGID_5_" d="M370.354,63.599c4.229-15.479,2.959-20.388-2.796-24.452c-7.317-5.236-14.99-9.919-24.977-12.26       c-28.811,10.145-51.023,31.997-67.022,51.834c-4.421,5.497-3.284,12.126,8.358,23.157       c14.114,13.33,25.301,28.711,38.633,41.818c4.326,4.291,8.326,6.955,11.97,8.388c7.935,1.693,14.698-1.819,19.119-17.788       C358.584,116.477,365.12,82.818,370.354,63.599L370.354,63.599z"></path>
				</defs>
				<clipPath id="SVGID_6_">
					<use xlink:href="#SVGID_5_"></use>
				</clipPath>
				<path clip-path="url(#SVGID_6_)" fill="#FFFFFF" d="M299.204,104.218v7.804c0,2.11,0.714,3.903,2.146,5.333      c1.433,1.43,3.221,2.144,5.333,2.144h41.723c2.112,0,3.9-0.714,5.333-2.144c0.129-0.13,0.259-0.261,0.389-0.421      c-1.172,5.103-2.309,9.817-3.381,13.885c-0.781,0.094-1.561,0.16-2.341,0.16h-38.015c-7.415-8.324-14.569-17.04-22.667-25.071      v-1.689v-0.164c0-2.538,0.521-4.942,1.528-7.156c1.009-2.244,2.375-4.193,4.131-5.887c1.756-1.722,3.771-3.056,6.049-3.999      c2.275-0.943,4.715-1.431,7.251-1.431h41.883v-0.162c2.018,0,3.74-0.715,5.173-2.146c1.431-1.431,2.146-3.156,2.146-5.169      v-1.758v-6.047v-0.162v-0.164v-0.325v-0.162v-0.128v-0.164l-0.163-0.164v-0.324v-0.164v-0.164      c-0.099-0.097-0.164-0.164-0.164-0.164v-0.161v-0.164l-0.129-0.13v-0.164c0-0.128-0.064-0.16-0.162-0.16v-0.164      c0-0.099-0.066-0.164-0.163-0.164v-0.164c0-0.097-0.065-0.162-0.164-0.162v-0.164c-0.099-0.097-0.163-0.162-0.163-0.162V66.33      l-0.164-0.162c0-0.132-0.064-0.164-0.162-0.164v-0.162l-0.163-0.164c0-0.099-0.033-0.164-0.162-0.164v-0.158      c-0.097,0-0.13-0.067-0.13-0.164h-0.162c0-0.098-0.067-0.164-0.165-0.164c0-0.097-0.065-0.164-0.162-0.164v-0.128      c-0.099,0-0.164-0.065-0.164-0.162h-0.163c-0.096-0.13-0.161-0.164-0.161-0.164l-0.163-0.164h-0.164      c0-0.097-0.031-0.162-0.163-0.162l-0.131-0.164h-0.163c0-0.097-0.065-0.164-0.162-0.164h-0.164c0-0.095-0.064-0.162-0.163-0.162      h-0.16c0-0.097-0.068-0.162-0.164-0.162h-0.163c0-0.099-0.033-0.164-0.164-0.164h-0.163c-0.098,0-0.131-0.032-0.131-0.13h-0.162      h-0.163l-0.164-0.162h-0.16h-0.165h-0.325l-0.162-0.164h-0.164h-0.129h-0.163h-0.162h-0.327h-0.162h-41.721      c-2.114,0-3.902,0.715-5.333,2.147c-1.433,1.429-2.147,3.219-2.147,5.331h-11.479c0-0.422,0.032-0.812,0.065-1.236      c5.757-6.146,12.128-12.227,19.186-17.723h41.429h0.489h0.454h0.489c0.097,0,0.195,0.033,0.261,0.099      c0.033,0.032,0.128,0.065,0.227,0.065h0.488h0.454c0.13,0.097,0.262,0.164,0.489,0.164h0.487      c0.097,0.097,0.26,0.162,0.456,0.162c0.128,0,0.193,0.033,0.259,0.065c0.033,0.067,0.13,0.099,0.229,0.099      c0.227,0,0.357,0.032,0.485,0.164h0.327c0.098,0.095,0.261,0.162,0.453,0.162c0.099,0.097,0.262,0.128,0.489,0.128      c0.099,0.13,0.262,0.164,0.487,0.164c0,0.132,0.101,0.164,0.294,0.164c0.129,0.129,0.195,0.162,0.261,0.162      c0.031,0,0.13,0.067,0.229,0.164c0.226,0,0.355,0.063,0.485,0.164c0.099,0.095,0.195,0.162,0.326,0.162      c0.099,0.097,0.163,0.162,0.229,0.162c0.062,0,0.129,0.034,0.226,0.164c0.099,0,0.229,0.032,0.325,0.164      c0.099,0,0.193,0,0.228,0.065c0.064,0.065,0.13,0.065,0.26,0.065c0,0,0.098,0.13,0.326,0.324      c0.195,0.099,0.294,0.164,0.294,0.164c0.226,0.229,0.389,0.326,0.487,0.326l0.322,0.325c0.197,0.099,0.327,0.164,0.327,0.164      c0.195,0.193,0.359,0.292,0.456,0.292c0,0.229,0.127,0.326,0.322,0.326c0,0,0.099,0.099,0.327,0.326l0.324,0.325l0.292,0.324      l0.325,0.294l0.326,0.324c0.227,0.229,0.325,0.326,0.325,0.326c0,0.227,0.097,0.324,0.322,0.324      c0,0.099,0.099,0.261,0.294,0.456c0.13,0.13,0.163,0.229,0.163,0.327l0.326,0.324c0,0.097,0.099,0.261,0.323,0.486      c0.098,0.099,0.164,0.195,0.164,0.328c0.195,0.195,0.325,0.292,0.325,0.292c0,0.13,0,0.195,0.065,0.26      c0.065,0.034,0.065,0.129,0.065,0.227c0.227,0.227,0.323,0.326,0.323,0.326c0,0.195,0.067,0.359,0.164,0.454      c0.099,0.229,0.164,0.326,0.164,0.326c0.097,0.13,0.161,0.261,0.161,0.488c0.099,0.098,0.164,0.195,0.164,0.227      c0,0.066,0.065,0.13,0.164,0.26c0,0.197,0.033,0.292,0.163,0.292c0,0.229,0.03,0.391,0.164,0.489      c0,0.227,0.029,0.391,0.128,0.486c0,0.067,0.032,0.164,0.032,0.229c-0.226,0.91-0.454,1.855-0.748,2.83      c-1.95,7.154-4.064,16.388-6.243,26.013c-1.073,0.785-2.275,1.499-3.545,2.051c-2.21,1.008-4.618,1.529-7.154,1.529v0.163      H306.67c-2.015,0-3.738,0.685-5.171,2.047C300.082,100.508,299.302,102.201,299.204,104.218L299.204,104.218z"></path>
			</g>
		</g>
		<text transform="matrix(1.0026 0 0 1 274.0664 128.1655)" fill="#2193D2" font-family="'ArialMT'" font-size="149.35"> </text>
	</g>
	<g>
		<path fill="#0E78BE" d="M20.052,78.083c0,0-4.274,2.565-4.702,5.271v43.026H6.943V82.5c0,0-0.571-7.267,11.541-12.396    C18.484,70.104,22.921,70.248,20.052,78.083z"></path>
		<g>
			<ellipse fill="#0E78BE" cx="11.681" cy="62.731" rx="6.092" ry="6.037"></ellipse>
			<path fill="#0E78BE" d="M73.551,51.083l-0.107,20.411l-37.4-0.214c0,0-7.802,1.39-9.084,9.938v35.585     c0,0,1.496,8.655,12.396,10.151h31.524c0,0,8.122-2.244,11.648-10.899V51.087C82.527,51.083,78.36,46.703,73.551,51.083z      M67.461,118.724H38.609c0,0-4.488-1.282-4.702-5.771V83.462c0,0,0.749-4.383,5.343-4.383h4.596h25.327     c0,0,3.741-0.748,4.809,4.169l0.855,30.773C74.833,114.022,74.406,118.51,67.461,118.724z"></path>
			<g>
				<path fill="#0E78BE" d="M130.399,118.724H99.696c0,0-3.758-1.282-3.652-5.771l0.267-10.205l38.077-0.02      c0,0,7.834-2.138,9.188-9.685c0,0,0.285-12.255-0.142-14.319c0,0-1.281-7.409-9.402-7.409H99.411c0,0-10.83-0.285-10.83,8.904      v37.044c0,0,0.928,9.33,11.471,9.688h33.909c0,0,9.262-2.425,10.544-13.538h-8.193      C136.313,113.415,134.816,118.186,130.399,118.724z M97.131,83.068c0,0-0.072-3.455,2.92-3.455h31.738      c0,0,5.023,0.855,5.023,6.947c0,0,0.997,6.875-5.592,8.869H97.131V83.068z"></path>
				<path fill="#0E78BE" d="M205.308,115.625l0.107-33.661c0,0-0.14-6.734-9.829-9.368H159.36c0,0-8.479,0.395-8.94,9.904v34.62      c0,0,0.357,10.401,11.826,10.401h34.267c0,0,3.775-1.212,3.775-4.097h3.206c0,0,0.854,3.259,3.259,3.259      c2.404,0,3.899,0,3.899,0v-7.427C210.651,119.258,206.055,119.9,205.308,115.625z M197.792,113.631      c0.07,4.559-3.491,5.627-3.491,5.627h-28.532c-6.411,0.214-7.374-3.74-7.374-3.74V84.209c-0.375-4.274,3.206-4.863,3.206-4.863      h31.469c3.9,0,4.721,3.794,4.721,3.794v30.49H197.792z"></path>
				<path fill="#0E78BE" d="M256.381,127.516l-35.8-0.788c-9.609-4.805-7.933-13.354-7.933-13.354l6.446-0.104      c0,1.813,4.052,5.557,4.052,5.557h34.09c8.24-9.403-1.059-16.035-1.059-16.035l-33.768,0.647      c-7.063,0.207-9.627-9.196-9.627-9.196s-0.308-4.807,0-13.233c0.325-8.444,9.2-9.299,9.2-9.299h36.536      c1.387,0.359,2.564,0.889,3.556,1.537c5.522,3.573,5.522,10.634,5.522,10.634h-7.147c-0.036-0.153-0.087-0.291-0.137-0.427      c-1.301-3.759-4.685-4.102-4.685-4.102h-30.775c-10.258,8.601-0.855,15.488-0.855,15.488h33.235      c2.188,0.515,3.934,1.303,5.334,2.207c5.079,3.283,5.625,8.259,5.625,8.259c0.052,0.667,0.086,1.299,0.086,1.93      C268.896,127.346,256.381,127.516,256.381,127.516z"></path>
			</g>
		</g>
	</g>
</g>
</svg>